<svg width="80" height="87" viewBox="0 0 80 87" fill="none" xmlns="http://www.w3.org/2000/svg">
<g id="003-data-analytics">
<g id="Group">
<path id="Vector" d="M49.5684 45.4884L62.1126 38.3608H37.6653L49.5684 45.4884Z" fill="#222222"/>
<path id="Vector_2" d="M37.6653 39.1641V57.2625C37.6653 57.6663 37.9494 57.9929 38.2977 57.9929H61.3147C61.6638 57.9929 61.9463 57.6643 61.9463 57.2625V39.5819L49.7945 47.6121L37.6653 39.1641Z" fill="#222222"/>
<path id="Vector_3" d="M66.8126 10H32.9633C31.1379 10 29.6531 11.7173 29.6531 13.8283V82.5271C29.6531 84.6371 31.1379 86.3554 32.9633 86.3554H66.8126C68.6379 86.3554 70.1228 84.6391 70.1228 82.5271V13.8273C70.1237 11.7173 68.6379 10 66.8126 10ZM52.068 83.6492H47.7079V80.3239L49.9057 77.6939L52.068 80.3259V83.6492ZM32.9633 76.3052V13.8273H66.8126L66.8144 76.3052H32.9633Z" fill="#222222"/>
<path id="Vector_4" d="M48.3547 80.6254V82.9028H51.4223V80.6254L49.9037 78.7739L48.3547 80.6254Z" fill="#222222"/>
<path id="Vector_5" d="M1.83224 30H22.991C24.0006 30 24.8205 30.884 24.8205 31.9689V43.3751L28.941 54.7365C29.0774 55.1121 28.9717 55.5391 28.681 55.7933C28.5229 55.9321 28.3297 56 28.1373 56C27.9712 56 27.8086 55.9505 27.6651 55.8486L19.1577 49.8709H1.83043C0.819941 49.8709 0 48.9859 0 47.902V31.9689C0.000902176 30.885 0.821751 30 1.83224 30ZM1.72568 47.902C1.72568 47.9641 1.77444 48.0175 1.83224 48.0175H19.5794C19.881 48.0175 20.16 48.1853 20.3162 48.4629C20.3181 48.4648 20.3199 48.4697 20.3217 48.4736L26.3575 52.7142L23.1563 43.8855C23.1174 43.7797 23.0967 43.6633 23.0967 43.5488V31.9689C23.0967 31.9059 23.0488 31.8535 22.9919 31.8535H1.83314C1.77534 31.8535 1.72658 31.9049 1.72658 31.9689V47.902H1.72568Z" fill="#222222"/>
<path id="Vector_6" d="M1.83224 0H22.991C24.0006 0 24.8205 0.88404 24.8205 1.96895V13.3751L28.941 24.7365C29.0774 25.1121 28.9717 25.5391 28.681 25.7933C28.5229 25.9321 28.3297 26 28.1373 26C27.9712 26 27.8086 25.9505 27.6651 25.8486L19.1577 19.8709H1.83043C0.819941 19.8709 0 18.9859 0 17.902V1.96895C0.000902176 0.88501 0.821751 0 1.83224 0ZM1.72568 17.902C1.72568 17.9641 1.77444 18.0175 1.83224 18.0175H19.5794C19.881 18.0175 20.16 18.1853 20.3162 18.4629C20.3181 18.4648 20.3199 18.4697 20.3217 18.4736L26.3575 22.7142L23.1563 13.8855C23.1174 13.7797 23.0967 13.6633 23.0967 13.5488V1.96895C23.0967 1.90587 23.0488 1.85347 22.9919 1.85347H1.83314C1.77534 1.85347 1.72658 1.9049 1.72658 1.96895V17.902H1.72568Z" fill="#222222"/>
</g>
</g>
</svg>
