<svg width="80" height="81" viewBox="0 0 80 81" fill="none" xmlns="http://www.w3.org/2000/svg">
<g id="001-variable" clip-path="url(#clip0_73_477)">
<g id="Group">
<g id="Group_2">
<path id="Vector" d="M76.513 77.6231H70.0305V74.4354C70.0305 74.2163 69.8527 74.0385 69.6336 74.0385C69.4145 74.0385 69.2367 74.2163 69.2367 74.4354V77.6231H62.0929V74.4354C62.0929 74.2163 61.9151 74.0385 61.696 74.0385C61.477 74.0385 61.2992 74.2163 61.2992 74.4354V77.6231H54.1554V74.4354C54.1554 74.2163 53.9776 74.0385 53.7585 74.0385C53.5394 74.0385 53.3616 74.2163 53.3616 74.4354V77.6231H46.2179V74.4354C46.2179 74.2163 46.0401 74.0385 45.821 74.0385C45.6019 74.0385 45.4241 74.2163 45.4241 74.4354V77.6231H38.2803V74.4354C38.2803 74.2163 38.1025 74.0385 37.8835 74.0385C37.6644 74.0385 37.4866 74.2163 37.4866 74.4354V77.6231H30.3428V74.4354C30.3428 74.2163 30.165 74.0385 29.9459 74.0385C29.7268 74.0385 29.549 74.2163 29.549 74.4354V77.6231H22.4053V74.4354C22.4053 74.2163 22.2275 74.0385 22.0084 74.0385C21.7893 74.0385 21.6115 74.2163 21.6115 74.4354V77.6231H14.4677V74.4354C14.4677 74.2163 14.2899 74.0385 14.0709 74.0385C13.8518 74.0385 13.674 74.2163 13.674 74.4354V77.6231H4.67838V63.2038H8.51538C8.73366 63.2038 8.91226 63.0252 8.91226 62.8069C8.91226 62.5887 8.73366 62.4101 8.51538 62.4101H4.67838V55.2663H8.51538C8.73366 55.2663 8.91226 55.0877 8.91226 54.8694C8.91226 54.6511 8.73366 54.4725 8.51538 54.4725H4.67838V47.3288H8.51538C8.73366 47.3288 8.91226 47.1502 8.91226 46.9319C8.91226 46.7136 8.73366 46.535 8.51538 46.535H4.67838V39.3912H8.51538C8.73366 39.3912 8.91226 39.2134 8.91226 38.9943C8.91226 38.7753 8.73366 38.5975 8.51538 38.5975H4.67838V31.4537H8.51538C8.73366 31.4537 8.91226 31.2759 8.91226 31.0568C8.91226 30.8377 8.73366 30.6599 8.51538 30.6599H4.67838V23.5162H8.51538C8.73366 23.5162 8.91226 23.3384 8.91226 23.1193C8.91226 22.9002 8.73366 22.7224 8.51538 22.7224H4.67838V15.5786H8.51538C8.73366 15.5786 8.91226 15.4008 8.91226 15.1817C8.91226 14.9627 8.73366 14.7849 8.51538 14.7849H4.67838V7.64109H8.51538C8.73366 7.64109 8.91226 7.46329 8.91226 7.24422C8.91226 7.02514 8.73366 6.84734 8.51538 6.84734H4.67838V1.19502C4.67838 0.537797 4.14498 0.00439453 3.48775 0.00439453C2.83052 0.00439453 2.29712 0.537797 2.29712 1.19502V78.8138C2.29712 79.471 2.83052 80.0044 3.48775 80.0044H76.513C77.1703 80.0044 77.7037 79.471 77.7037 78.8138C77.7037 78.1565 77.1703 77.6231 76.513 77.6231Z" fill="#222222"/>
<path id="Vector_2" d="M30.582 41.2186L53.8334 37.1804L65 6.99963L69 15.4998L70 13.9996L65 4L55.4998 10.9998L56 12.4998L64 6.49963L52.3935 35.4118L28.5748 39.5484L25 58.4998L10.7095 65.6009L10.9038 67.5823L27 59.9998L30.582 41.2186Z" fill="#222222"/>
</g>
</g>
</g>
<defs>
<clipPath id="clip0_73_477">
<rect width="80" height="80" fill="white" transform="translate(0 0.00439453)"/>
</clipPath>
</defs>
</svg>
