<svg width="90" height="90" viewBox="0 0 90 90" fill="none" xmlns="http://www.w3.org/2000/svg">
<g id="002-wheel" clip-path="url(#clip0_108_256)">
<g id="Group">
<g id="Group_2">
<path id="Vector" d="M76.8441 67.9447C74.3522 65.4528 70.449 65.2393 67.7076 67.2934L54.8488 54.4347C56.7997 52.1331 57.9049 49.2841 58.0188 46.257V46.3588L77.7527 46.3588L77.7527 45.2982L58.023 45.2982C57.9261 42.2399 56.8188 39.3564 54.8495 37.0321L67.8391 24.0426L67.8242 24.0277C70.5664 26.0953 74.4795 25.8874 76.9777 23.3892C79.7114 20.6555 79.7114 16.2234 76.9777 13.4897C74.2448 10.7567 69.8119 10.756 67.0782 13.4897C64.58 15.9879 64.3728 19.9017 66.4404 22.6439L66.4249 22.6283L53.4445 35.6087C50.9767 33.4336 47.8541 32.233 44.5442 32.2337C41.324 32.2337 38.2778 33.365 35.8432 35.4291L22.9625 22.5484L22.2554 23.2555L21.5483 23.9626L34.4198 36.8341C32.3395 39.193 31.165 42.1523 31.066 45.2975L11.5916 45.2982C11.489 43.995 10.9566 42.7795 10.0218 41.8447C8.98305 40.8059 7.60207 40.2339 6.1327 40.2339C3.09992 40.2346 0.633529 42.701 0.633527 45.7331C0.633528 47.2024 1.20699 48.582 2.24573 49.6207C3.28518 50.6602 4.66545 51.2329 6.13482 51.2329C7.60419 51.2329 8.98516 50.6609 10.0246 49.6214C10.9127 48.7333 11.4353 47.5885 11.5732 46.3574L31.0752 46.3588C31.2145 49.4355 32.3826 52.3233 34.4205 54.6327L21.6289 67.4243L21.6445 67.4398C18.9016 65.3729 14.9878 65.5801 12.4896 68.0783C9.75592 70.812 9.75662 75.2449 12.4896 77.9778C15.2233 80.7115 19.6554 80.7115 22.3891 77.9778C24.8873 75.4796 25.0952 71.5665 23.0283 68.8236L23.0432 68.8385L35.8425 56.0391C38.1038 57.9554 40.8934 59.0521 43.8597 59.1999L43.8597 78.692H44.9203L44.921 59.2147C48.0917 59.1285 51.07 57.9504 53.4424 55.8567L66.2933 68.7076C64.2385 71.4498 64.452 75.3516 66.9446 77.8442C69.6783 80.5779 74.1097 80.5786 76.8441 77.8442C79.5778 75.1105 79.5778 70.6784 76.8441 67.9447ZM51.6414 56.0172C51.2334 56.3008 50.8077 56.5525 50.3735 56.783C50.8112 56.5518 51.2355 56.2986 51.6414 56.0172ZM6.13411 50.2338C4.93203 50.2338 3.80207 49.7657 2.95142 48.915C2.10077 48.0644 1.63408 46.9344 1.63267 45.7338C1.63267 43.2532 3.65217 41.2337 6.1327 41.2337C7.33478 41.2337 8.46403 41.7011 9.31468 42.5518C10.1653 43.4024 10.6327 44.5331 10.6334 45.7345C10.6341 46.9373 10.1653 48.0665 9.31539 48.9164C8.46474 49.7671 7.33549 50.2345 6.13411 50.2338ZM38.2608 51.4528C39.704 53.0346 41.6903 54.0225 43.8144 54.2035C41.6917 54.0225 39.7118 53.0467 38.2608 51.4528ZM44.5449 53.234C42.5445 53.2333 40.6621 52.4527 39.2437 51.0342C37.8252 49.6158 37.0439 47.7327 37.0446 45.7338C37.0446 43.7341 37.8252 41.8517 39.2437 40.4333C40.6614 39.0155 42.5437 38.2335 44.5434 38.2335C46.5431 38.2335 48.4255 39.0155 49.8439 40.434C51.2624 41.8524 52.0437 43.7355 52.0444 45.7345C52.0451 49.8689 48.6807 53.2333 44.5449 53.234ZM54.1311 53.717C55.3685 52.2321 56.2835 50.47 56.729 48.5226C56.2956 50.4297 55.4025 52.1953 54.1311 53.717ZM48.8886 57.4533C48.3936 57.6358 47.8895 57.7878 47.3733 57.908C47.8909 57.7878 48.3965 57.6358 48.8886 57.4533ZM50.3156 56.8184C49.8701 57.0503 49.4076 57.2539 48.9374 57.43C49.4105 57.2525 49.8715 57.0503 50.3156 56.8184Z" fill="#222222"/>
<path id="Vector_2" d="M12.3557 23.2561C15.0895 25.9899 19.5218 25.9899 22.2556 23.2561C24.9894 20.5223 24.9894 16.09 22.2556 13.3562C19.5218 10.6224 15.0895 10.6224 12.3557 13.3562C9.62193 16.09 9.62193 20.5223 12.3557 23.2561Z" fill="#222222"/>
<path id="Vector_3" d="M79.4457 49.6224C80.4844 50.6611 81.8654 51.2331 83.334 51.2338C86.368 51.2345 88.835 48.7675 88.8336 45.7341C88.8336 44.2648 88.2616 42.8839 87.2222 41.8445C86.1835 40.8058 84.8019 40.2331 83.3325 40.2331C81.8639 40.2338 80.483 40.8058 79.4443 41.8445C78.4063 42.8825 77.8343 44.2634 77.8329 45.7327C77.8336 47.2013 78.4063 48.583 79.4457 49.6224ZM83.3333 41.2322C84.536 41.2329 85.6645 41.6995 86.5158 42.5509C87.3671 43.4022 87.8345 44.5314 87.8345 45.7334C87.8345 48.2139 85.8158 50.2326 83.3347 50.2333C82.1326 50.2333 81.0041 49.7652 80.1535 48.9146C79.3029 48.064 78.8348 46.934 78.8334 45.732C78.8341 44.5293 79.3029 43.4001 80.1521 42.5509C81.0013 41.7017 82.1312 41.2336 83.3333 41.2322Z" fill="#222222"/>
<path id="Vector_4" d="M40.5036 49.6141C41.5423 50.6528 42.9232 51.2248 44.3918 51.2255C47.4259 51.2262 49.8929 48.7592 49.8915 45.7258C49.8915 44.2565 49.3194 42.8756 48.28 41.8362C47.2413 40.7975 45.8597 40.2248 44.3904 40.2248C42.9218 40.2255 41.5409 40.7975 40.5022 41.8362C39.4642 42.8742 38.8922 44.2551 38.8908 45.7244C38.8915 47.193 39.4642 48.5747 40.5036 49.6141ZM44.3911 41.2239C45.5939 41.2246 46.7224 41.6912 47.5737 42.5426C48.425 43.3939 48.8924 44.5231 48.8924 45.7251C48.8924 48.2056 46.8737 50.2243 44.3925 50.225C43.1905 50.225 42.062 49.7569 41.2114 48.9063C40.3608 48.0557 39.8927 46.9257 39.8913 45.7237C39.892 44.521 40.3608 43.3918 41.21 42.5426C42.0592 41.6934 43.1891 41.2253 44.3911 41.2239Z" fill="#222222"/>
<path id="Vector_5" d="M48.5036 30.6145C49.5423 31.6532 50.9232 32.2253 52.3918 32.226C55.4259 32.2267 57.8929 29.7597 57.8915 26.7263C57.8915 25.257 57.3194 23.8761 56.28 22.8367C55.2413 21.798 53.8597 21.2253 52.3904 21.2253C50.9218 21.226 49.5409 21.798 48.5022 22.8367C47.4642 23.8747 46.8922 25.2556 46.8908 26.7249C46.8915 28.1935 47.4642 29.5751 48.5036 30.6145ZM52.3911 22.2244C53.5939 22.2251 54.7224 22.6917 55.5737 23.5431C56.425 24.3944 56.8924 25.5236 56.8924 26.7256C56.8924 29.206 54.8737 31.2248 52.3925 31.2255C51.1905 31.2255 50.062 30.7574 49.2114 29.9068C48.3608 29.0561 47.8927 27.9262 47.8913 26.7242C47.892 25.5215 48.3608 24.3923 49.21 23.5431C50.0592 22.6939 51.1891 22.2258 52.3911 22.2244Z" fill="#222222"/>
<path id="Vector_6" d="M32.5036 30.6145C33.5423 31.6532 34.9232 32.2253 36.3918 32.226C39.4259 32.2267 41.8929 29.7597 41.8915 26.7263C41.8915 25.257 41.3194 23.8761 40.28 22.8367C39.2413 21.798 37.8597 21.2253 36.3904 21.2253C34.9218 21.226 33.5409 21.798 32.5022 22.8367C31.4642 23.8747 30.8922 25.2556 30.8908 26.7249C30.8915 28.1935 31.4642 29.5751 32.5036 30.6145ZM36.3911 22.2244C37.5939 22.2251 38.7224 22.6917 39.5737 23.5431C40.425 24.3944 40.8924 25.5236 40.8924 26.7256C40.8924 29.206 38.8737 31.2248 36.3925 31.2255C35.1905 31.2255 34.062 30.7574 33.2114 29.9068C32.3608 29.0561 31.8927 27.9262 31.8913 26.7242C31.892 25.5215 32.3608 24.3923 33.21 23.5431C34.0592 22.6939 35.1891 22.2258 36.3911 22.2244Z" fill="#222222"/>
<path id="Vector_7" d="M21.5036 42.6145C22.5423 43.6532 23.9232 44.2253 25.3918 44.226C28.4259 44.2267 30.8929 41.7597 30.8915 38.7263C30.8915 37.257 30.3194 35.8761 29.28 34.8367C28.2413 33.798 26.8597 33.2253 25.3904 33.2253C23.9218 33.226 22.5409 33.798 21.5022 34.8367C20.4642 35.8747 19.8922 37.2556 19.8908 38.7249C19.8915 40.1935 20.4642 41.5751 21.5036 42.6145ZM25.3911 34.2244C26.5939 34.2251 27.7224 34.6917 28.5737 35.5431C29.425 36.3944 29.8924 37.5236 29.8924 38.7256C29.8924 41.206 27.8737 43.2248 25.3925 43.2255C24.1905 43.2255 23.062 42.7574 22.2114 41.9068C21.3608 41.0561 20.8927 39.9262 20.8913 38.7242C20.892 37.5215 21.3608 36.3923 22.21 35.5431C23.0592 34.6939 24.1891 34.2258 25.3911 34.2244Z" fill="#222222"/>
<path id="Vector_8" d="M21.5036 57.6145C22.5423 58.6532 23.9232 59.2253 25.3918 59.226C28.4259 59.2267 30.8929 56.7597 30.8915 53.7263C30.8915 52.257 30.3194 50.8761 29.28 49.8367C28.2413 48.798 26.8597 48.2253 25.3904 48.2253C23.9218 48.226 22.5409 48.798 21.5022 49.8367C20.4642 50.8747 19.8922 52.2556 19.8908 53.7249C19.8915 55.1935 20.4642 56.5751 21.5036 57.6145ZM25.3911 49.2244C26.5939 49.2251 27.7224 49.6917 28.5737 50.5431C29.425 51.3944 29.8924 52.5236 29.8924 53.7256C29.8924 56.206 27.8737 58.2248 25.3925 58.2255C24.1905 58.2255 23.062 57.7574 22.2114 56.9068C21.3608 56.0561 20.8927 54.9262 20.8913 53.7242C20.892 52.5215 21.3608 51.3923 22.21 50.5431C23.0592 49.6939 24.1891 49.2258 25.3911 49.2244Z" fill="#222222"/>
<path id="Vector_9" d="M33.5036 68.6145C34.5423 69.6532 35.9232 70.2253 37.3918 70.226C40.4259 70.2267 42.8929 67.7597 42.8915 64.7263C42.8915 63.257 42.3194 61.8761 41.28 60.8367C40.2413 59.798 38.8597 59.2253 37.3904 59.2253C35.9218 59.226 34.5409 59.798 33.5022 60.8367C32.4642 61.8747 31.8922 63.2556 31.8908 64.7249C31.8915 66.1935 32.4642 67.5751 33.5036 68.6145ZM37.3911 60.2244C38.5939 60.2251 39.7224 60.6917 40.5737 61.5431C41.425 62.3944 41.8924 63.5236 41.8924 64.7256C41.8924 67.206 39.8737 69.2248 37.3925 69.2255C36.1905 69.2255 35.062 68.7574 34.2114 67.9068C33.3608 67.0561 32.8927 65.9262 32.8913 64.7242C32.892 63.5215 33.3608 62.3923 34.21 61.5431C35.0592 60.6939 36.1891 60.2258 37.3911 60.2244Z" fill="#222222"/>
<path id="Vector_10" d="M48.5036 68.6141C49.5423 69.6528 50.9232 70.2248 52.3918 70.2255C55.4259 70.2262 57.8929 67.7592 57.8915 64.7258C57.8915 63.2565 57.3194 61.8756 56.28 60.8362C55.2413 59.7975 53.8597 59.2248 52.3904 59.2248C50.9218 59.2255 49.5409 59.7975 48.5022 60.8362C47.4642 61.8742 46.8922 63.2551 46.8908 64.7244C46.8915 66.193 47.4642 67.5747 48.5036 68.6141ZM52.3911 60.2239C53.5939 60.2246 54.7224 60.6912 55.5737 61.5426C56.425 62.3939 56.8924 63.5231 56.8924 64.7251C56.8924 67.2056 54.8737 69.2243 52.3925 69.225C51.1905 69.225 50.062 68.7569 49.2114 67.9063C48.3608 67.0557 47.8927 65.9257 47.8913 64.7237C47.892 63.521 48.3608 62.3918 49.21 61.5426C50.0592 60.6934 51.1891 60.2253 52.3911 60.2239Z" fill="#222222"/>
<path id="Vector_11" d="M59.5036 56.6145C60.5423 57.6532 61.9232 58.2253 63.3918 58.226C66.4259 58.2267 68.8929 55.7597 68.8915 52.7263C68.8915 51.257 68.3194 49.8761 67.28 48.8367C66.2413 47.798 64.8597 47.2253 63.3904 47.2253C61.9218 47.226 60.5409 47.798 59.5022 48.8367C58.4642 49.8747 57.8922 51.2556 57.8908 52.7249C57.8915 54.1935 58.4642 55.5751 59.5036 56.6145ZM63.3911 48.2244C64.5939 48.2251 65.7224 48.6917 66.5737 49.5431C67.425 50.3944 67.8924 51.5236 67.8924 52.7256C67.8924 55.206 65.8737 57.2248 63.3925 57.2255C62.1905 57.2255 61.062 56.7574 60.2114 55.9068C59.3608 55.0561 58.8927 53.9262 58.8913 52.7242C58.892 51.5215 59.3608 50.3923 60.21 49.5431C61.0592 48.6939 62.1891 48.2258 63.3911 48.2244Z" fill="#222222"/>
<path id="Vector_12" d="M59.5036 42.6145C60.5423 43.6532 61.9232 44.2253 63.3918 44.226C66.4259 44.2267 68.8929 41.7597 68.8915 38.7263C68.8915 37.257 68.3194 35.8761 67.28 34.8367C66.2413 33.798 64.8597 33.2253 63.3904 33.2253C61.9218 33.226 60.5409 33.798 59.5022 34.8367C58.4642 35.8747 57.8922 37.2556 57.8908 38.7249C57.8915 40.1935 58.4642 41.5751 59.5036 42.6145ZM63.3911 34.2244C64.5939 34.2251 65.7224 34.6917 66.5737 35.5431C67.425 36.3944 67.8924 37.5236 67.8924 38.7256C67.8924 41.206 65.8737 43.2248 63.3925 43.2255C62.1905 43.2255 61.062 42.7574 60.2114 41.9068C59.3608 41.0561 58.8927 39.9262 58.8913 38.7242C58.892 37.5215 59.3608 36.3923 60.21 35.5431C61.0592 34.6939 62.1891 34.2258 63.3911 34.2244Z" fill="#222222"/>
<path id="Vector_13" d="M48.6225 80.4453C47.5831 79.4059 46.2015 78.8332 44.7322 78.8332C43.2643 78.8332 41.8827 79.4059 40.844 80.4446C39.8053 81.4833 39.2325 82.8649 39.2318 84.3335C39.2318 85.8028 39.8053 87.1838 40.8447 88.2232C41.8848 89.2633 43.2657 89.8353 44.7329 89.8346C47.7656 89.8353 50.234 87.3683 50.2326 84.3349C50.2347 82.8663 49.6627 81.4854 48.6225 80.4453ZM44.7336 88.8341C43.5309 88.8348 42.4031 88.366 41.5525 87.5154C40.7019 86.6648 40.2345 85.5341 40.2324 84.3328C40.2331 83.1301 40.7004 82.0023 41.5518 81.151C42.4031 80.2996 43.5316 79.833 44.7336 79.8316C45.9364 79.8323 47.0641 80.2996 47.9162 81.1517C48.7661 82.0016 49.2335 83.1322 49.2349 84.3328C49.2335 86.8147 47.2148 88.8334 44.7336 88.8341Z" fill="#222222"/>
<path id="Vector_14" d="M40.8444 11.0223C41.6739 11.8518 42.7247 12.368 43.8604 12.549L43.8604 32.2018H44.9211L44.9211 12.6155C46.3198 12.5688 47.6301 12.0166 48.6229 11.0238C49.6617 9.98497 50.2345 8.60323 50.2345 7.1338C50.2352 5.66508 49.6624 4.28475 48.6229 3.24526C47.5835 2.20577 46.2017 1.63299 44.7337 1.63299C43.2671 1.63299 41.8868 2.20577 40.8466 3.24596C39.8064 4.28616 39.2336 5.66649 39.2336 7.13309C39.2329 8.60181 39.805 9.98285 40.8444 11.0223ZM44.7337 2.63288C45.9358 2.63288 47.0644 3.101 47.9158 3.95239C48.7658 4.80237 49.2339 5.93237 49.2346 7.1338C49.2353 8.33663 48.7665 9.46593 47.9158 10.3166C47.0665 11.1659 45.9358 11.6333 44.7337 11.6347C43.5316 11.6347 42.403 11.1666 41.5516 10.3152C40.7016 9.46522 40.2335 8.33522 40.2328 7.1338C40.2321 5.93379 40.7023 4.80449 41.553 3.95381C42.4037 3.10312 43.5337 2.63358 44.7337 2.63288Z" fill="#222222"/>
</g>
</g>
</g>
<defs>
<clipPath id="clip0_108_256">
<rect width="90" height="90" fill="white"/>
</clipPath>
</defs>
</svg>
